<svg width="18" height="18" viewBox="0 0 18 18" fill="none" xmlns="http://www.w3.org/2000/svg">
<path d="M16.9456 7.92076H4.07727C4.03921 7.92039 4.00214 7.90852 3.97094 7.88671C3.93974 7.8649 3.91586 7.83417 3.90244 7.79855C3.88902 7.76292 3.88669 7.72407 3.89574 7.6871C3.9048 7.65012 3.92482 7.61675 3.95318 7.59136L10.4486 1.87579C10.6528 1.68325 10.7743 1.41897 10.7875 1.13862C10.8006 0.858274 10.7045 0.583767 10.5192 0.372951C10.3339 0.162136 10.074 0.0314791 9.79433 0.00851614C9.51461 -0.0144468 9.23691 0.0720781 9.01974 0.249856L0.611077 7.64927C0.419022 7.81864 0.265206 8.02695 0.159847 8.26034C0.0544891 8.49374 0 8.74688 0 9.00296C0 9.25903 0.0544891 9.51217 0.159847 9.74557C0.265206 9.97896 0.419022 10.1873 0.611077 10.3566L9.01824 17.7546C9.23558 17.9301 9.51235 18.0149 9.79073 17.9911C10.0691 17.9674 10.3275 17.837 10.512 17.6272C10.6965 17.4173 10.7927 17.1443 10.7806 16.8652C10.7685 16.5861 10.6491 16.3225 10.4471 16.1294L3.95168 10.4138C3.92332 10.3884 3.90329 10.355 3.89424 10.3181C3.88518 10.2811 3.88752 10.2422 3.90094 10.2066C3.91436 10.171 3.93823 10.1403 3.96944 10.1184C4.00064 10.0966 4.0377 10.0848 4.07577 10.0844H16.9456C17.2278 10.077 17.4959 9.95965 17.6928 9.75743C17.8898 9.55522 18 9.2841 18 9.00183C18 8.71955 17.8898 8.44843 17.6928 8.24622C17.4959 8.04401 17.2278 7.92669 16.9456 7.91925V7.92076Z" fill="#222222"/>
</svg>
